<svg width="14" height="19" viewBox="0 0 14 19" fill="none" xmlns="http://www.w3.org/2000/svg">
<path d="M5.34357 10.4167L6.09357 8.02082L4.11441 6.47916H6.53107L7.32274 3.99999L8.09357 6.47916H10.5311L8.55191 8.02082L9.28107 10.4167L7.32274 8.93749L5.34357 10.4167ZM2.40607 18.1667V11.8333C1.78107 11.1805 1.33316 10.4653 1.06232 9.68749C0.791491 8.90971 0.656075 8.12499 0.656075 7.33332C0.656075 5.44443 1.29496 3.8611 2.57274 2.58332C3.85052 1.30555 5.43385 0.666656 7.32274 0.666656C9.21163 0.666656 10.795 1.30555 12.0727 2.58332C13.3505 3.8611 13.9894 5.44443 13.9894 7.33332C13.9894 8.12499 13.854 8.90971 13.5832 9.68749C13.3123 10.4653 12.8644 11.1805 12.2394 11.8333V18.1667L7.32274 16.5208L2.40607 18.1667ZM7.32274 12.75C8.83663 12.75 10.1179 12.2257 11.1665 11.1771C12.2151 10.1285 12.7394 8.84721 12.7394 7.33332C12.7394 5.81943 12.2151 4.53818 11.1665 3.48957C10.1179 2.44096 8.83663 1.91666 7.32274 1.91666C5.80885 1.91666 4.5276 2.44096 3.47899 3.48957C2.43038 4.53818 1.90607 5.81943 1.90607 7.33332C1.90607 8.84721 2.43038 10.1285 3.47899 11.1771C4.5276 12.2257 5.80885 12.75 7.32274 12.75Z" fill="#666666"/>
</svg>
