<svg width="14" height="14" viewBox="0 0 14 14" fill="none" xmlns="http://www.w3.org/2000/svg">
<path d="M7.32274 6.97916C6.40607 6.97916 5.65607 6.68749 5.07273 6.10416C4.4894 5.52082 4.19773 4.77082 4.19773 3.85416C4.19773 2.93749 4.4894 2.18749 5.07273 1.60416C5.65607 1.02082 6.40607 0.729156 7.32274 0.729156C8.2394 0.729156 8.9894 1.02082 9.57274 1.60416C10.1561 2.18749 10.4477 2.93749 10.4477 3.85416C10.4477 4.77082 10.1561 5.52082 9.57274 6.10416C8.9894 6.68749 8.2394 6.97916 7.32274 6.97916ZM0.656067 13.6667V11.7083C0.656067 11.1805 0.788011 10.7292 1.0519 10.3542C1.31579 9.97916 1.65607 9.69443 2.07273 9.49999C3.00329 9.08332 3.89565 8.77082 4.74982 8.56249C5.60398 8.35416 6.46162 8.24999 7.32274 8.24999C8.18385 8.24999 9.03801 8.35763 9.88524 8.57291C10.7325 8.78818 11.6213 9.09721 12.5519 9.49999C12.9825 9.69443 13.3297 9.97916 13.5936 10.3542C13.8575 10.7292 13.9894 11.1805 13.9894 11.7083V13.6667H0.656067Z" fill="#666666"/>
</svg>
