<svg width="4" height="13" viewBox="0 0 4 13" fill="none" xmlns="http://www.w3.org/2000/svg">
<path d="M1.71684 7.25214C2.08503 7.25214 2.3835 6.95366 2.3835 6.58547C2.3835 6.21728 2.08503 5.9188 1.71684 5.9188C1.34865 5.9188 1.05017 6.21728 1.05017 6.58547C1.05017 6.95366 1.34865 7.25214 1.71684 7.25214Z" stroke="#666666" stroke-width="1.5" stroke-linecap="round" stroke-linejoin="round"/>
<path d="M1.71684 2.58547C2.08503 2.58547 2.3835 2.28699 2.3835 1.9188C2.3835 1.55061 2.08503 1.25214 1.71684 1.25214C1.34865 1.25214 1.05017 1.55061 1.05017 1.9188C1.05017 2.28699 1.34865 2.58547 1.71684 2.58547Z" stroke="#666666" stroke-width="1.5" stroke-linecap="round" stroke-linejoin="round"/>
<path d="M1.71684 11.9188C2.08503 11.9188 2.3835 11.6203 2.3835 11.2521C2.3835 10.8839 2.08503 10.5855 1.71684 10.5855C1.34865 10.5855 1.05017 10.8839 1.05017 11.2521C1.05017 11.6203 1.34865 11.9188 1.71684 11.9188Z" stroke="#666666" stroke-width="1.5" stroke-linecap="round" stroke-linejoin="round"/>
</svg>
