<svg width="14" height="18" viewBox="0 0 14 18" fill="none" xmlns="http://www.w3.org/2000/svg">
<path d="M0.652344 14.8259V13.1592H2.31901V7.32591C2.31901 6.17313 2.66623 5.14868 3.36068 4.25257C4.05512 3.35702 4.9579 2.77035 6.06901 2.49257V1.90924C6.06901 1.56202 6.19068 1.26702 6.43401 1.02424C6.67679 0.780907 6.97179 0.659241 7.31901 0.659241C7.66623 0.659241 7.96123 0.780907 8.20401 1.02424C8.44734 1.26702 8.56901 1.56202 8.56901 1.90924V2.49257C9.68012 2.77035 10.5829 3.35702 11.2773 4.25257C11.9718 5.14868 12.319 6.17313 12.319 7.32591V13.1592H13.9857V14.8259H0.652344ZM7.31901 17.3259C6.86068 17.3259 6.46845 17.1628 6.14234 16.8367C5.81568 16.5101 5.65234 16.1176 5.65234 15.6592H8.98568C8.98568 16.1176 8.82262 16.5101 8.49651 16.8367C8.16984 17.1628 7.77734 17.3259 7.31901 17.3259Z" fill="#666666"/>
</svg>
