<svg width="25" height="23" viewBox="0 0 25 23" fill="none" xmlns="http://www.w3.org/2000/svg">
<path d="M2.96744 19.5263H3.21744V19.2763V14.4072V14.1572H2.96744H1.7249V10.4011C1.7249 9.69199 2.343 9.11025 3.10312 9.11025H5.54545H5.79545V8.86025V8.36719V8.11719H5.54545H3.10312C1.81919 8.11719 0.75 9.14626 0.75 10.4011V14.9003V15.1503H1H2.24254V19.2763V19.5263H2.49254H2.96744Z" fill="black" stroke="black" stroke-width="0.5"/>
<path d="M21.5794 19.5263H21.3294V19.2763V14.4072V14.1572H21.5794H22.822V10.4011C22.822 9.69199 22.2039 9.11025 21.4438 9.11025H19.0014H18.7514V8.86025V8.36719V8.11719H19.0014H21.4438C22.7277 8.11719 23.7969 9.14626 23.7969 10.4011V14.9003V15.1503H23.5469H22.3043V19.2763V19.5263H22.0543H21.5794Z" fill="black" stroke="black" stroke-width="0.5"/>
<path d="M14.5 22.2486H14.5001L14.8967 22.2486L15.1467 22.2486V21.9986V15.7193H16.544H16.794V15.4693V9.97434C16.794 8.50574 15.6705 7.20312 14.2866 7.20312H9.7106C8.33063 7.20312 7.20312 8.43673 7.20312 9.97434V15.4693V15.7193H7.45312H8.85047V21.9986V22.2486H9.10047H9.58857H9.83857V21.9986V14.9521V14.7021H9.58857H8.19123V9.97434C8.19123 8.9241 8.95692 8.15565 9.77161 8.15565H14.2866C15.1525 8.15565 15.8669 8.97771 15.8669 9.97434V14.7021H14.4696H14.2196V14.9521V21.9986V22.2487L14.4697 22.2486L14.5 22.2486Z" fill="black" stroke="black" stroke-width="0.5"/>
<path d="M11.75 9.36435V9.45526V10.0916H12H12.25V9.45526V9.36435H12H11.75Z" fill="black" stroke="black" stroke-width="0.5"/>
<path d="M11.75 11.1847V11.9119H12H12.25V11.1847H12H11.75Z" fill="black" stroke="black" stroke-width="0.5"/>
<mask id="path-6-outside-1_0_150" maskUnits="userSpaceOnUse" x="1.30078" y="1.98438" width="5" height="6" fill="black">
<rect fill="white" x="1.30078" y="1.98438" width="5" height="6"/>
<path fill-rule="evenodd" clip-rule="evenodd" d="M2.30078 4.77925C2.30078 5.80489 3.01739 6.57413 3.99459 6.57413C4.97179 6.57413 5.75355 5.74079 5.6884 4.77925C5.6884 3.75361 4.97179 2.98438 3.99459 2.98438C3.08254 2.98438 2.30078 3.81771 2.30078 4.77925ZM2.75391 4.78205C2.75391 4.07692 3.34023 3.5 3.99169 3.5C4.7083 3.5 5.22948 4.07692 5.22948 4.78205C5.22948 5.48718 4.64316 6.06411 3.99169 6.06411C3.27508 6.06411 2.75391 5.48718 2.75391 4.78205Z"/>
</mask>
<path fill-rule="evenodd" clip-rule="evenodd" d="M2.30078 4.77925C2.30078 5.80489 3.01739 6.57413 3.99459 6.57413C4.97179 6.57413 5.75355 5.74079 5.6884 4.77925C5.6884 3.75361 4.97179 2.98438 3.99459 2.98438C3.08254 2.98438 2.30078 3.81771 2.30078 4.77925ZM2.75391 4.78205C2.75391 4.07692 3.34023 3.5 3.99169 3.5C4.7083 3.5 5.22948 4.07692 5.22948 4.78205C5.22948 5.48718 4.64316 6.06411 3.99169 6.06411C3.27508 6.06411 2.75391 5.48718 2.75391 4.78205Z" fill="black"/>
<path d="M5.6884 4.77925H5.1884V4.79617L5.18955 4.81305L5.6884 4.77925ZM3.99459 6.07413C3.3222 6.07413 2.80078 5.55832 2.80078 4.77925H1.80078C1.80078 6.05147 2.71259 7.07413 3.99459 7.07413V6.07413ZM5.18955 4.81305C5.23487 5.48199 4.68618 6.07413 3.99459 6.07413V7.07413C5.2574 7.07413 6.27223 5.99959 6.18726 4.74545L5.18955 4.81305ZM3.99459 3.48438C4.66698 3.48438 5.1884 4.00019 5.1884 4.77925H6.1884C6.1884 3.50703 5.2766 2.48438 3.99459 2.48438V3.48438ZM2.80078 4.77925C2.80078 4.06525 3.38645 3.48438 3.99459 3.48438V2.48438C2.77863 2.48438 1.80078 3.57017 1.80078 4.77925H2.80078ZM3.99169 3C3.0552 3 2.25391 3.80975 2.25391 4.78205H3.25391C3.25391 4.3441 3.62525 4 3.99169 4V3ZM5.72948 4.78205C5.72948 3.8272 5.01014 3 3.99169 3V4C4.40647 4 4.72948 4.32665 4.72948 4.78205H5.72948ZM3.99169 6.56411C4.92818 6.56411 5.72948 5.75436 5.72948 4.78205H4.72948C4.72948 5.22001 4.35813 5.56411 3.99169 5.56411V6.56411ZM2.25391 4.78205C2.25391 5.73691 2.97324 6.56411 3.99169 6.56411V5.56411C3.57692 5.56411 3.25391 5.23746 3.25391 4.78205H2.25391Z" fill="black" mask="url(#path-6-outside-1_0_150)"/>
<mask id="path-8-outside-2_0_150" maskUnits="userSpaceOnUse" x="17.4375" y="1.98438" width="5" height="6" fill="black">
<rect fill="white" x="17.4375" y="1.98438" width="5" height="6"/>
<path fill-rule="evenodd" clip-rule="evenodd" d="M18.4375 4.77925C18.4375 5.80489 19.1541 6.57413 20.1313 6.57413C21.0434 6.57413 21.8251 5.74079 21.8251 4.77925C21.8251 3.75361 21.1085 2.98438 20.1313 2.98438C19.2193 2.98438 18.4375 3.81771 18.4375 4.77925ZM18.8906 4.78205C18.8906 4.07692 19.4769 3.5 20.1284 3.5C20.7799 3.5 21.3662 4.07692 21.3662 4.78205C21.3662 5.48718 20.7799 6.06411 20.1284 6.06411C19.4118 6.06411 18.8906 5.48718 18.8906 4.78205Z"/>
</mask>
<path fill-rule="evenodd" clip-rule="evenodd" d="M18.4375 4.77925C18.4375 5.80489 19.1541 6.57413 20.1313 6.57413C21.0434 6.57413 21.8251 5.74079 21.8251 4.77925C21.8251 3.75361 21.1085 2.98438 20.1313 2.98438C19.2193 2.98438 18.4375 3.81771 18.4375 4.77925ZM18.8906 4.78205C18.8906 4.07692 19.4769 3.5 20.1284 3.5C20.7799 3.5 21.3662 4.07692 21.3662 4.78205C21.3662 5.48718 20.7799 6.06411 20.1284 6.06411C19.4118 6.06411 18.8906 5.48718 18.8906 4.78205Z" fill="black"/>
<path d="M20.1313 6.07413C19.4589 6.07413 18.9375 5.55832 18.9375 4.77925H17.9375C17.9375 6.05147 18.8493 7.07413 20.1313 7.07413V6.07413ZM21.3251 4.77925C21.3251 5.49326 20.7395 6.07413 20.1313 6.07413V7.07413C21.3473 7.07413 22.3251 5.98833 22.3251 4.77925H21.3251ZM20.1313 3.48438C20.8037 3.48438 21.3251 4.00019 21.3251 4.77925H22.3251C22.3251 3.50703 21.4133 2.48438 20.1313 2.48438V3.48438ZM18.9375 4.77925C18.9375 4.06525 19.5232 3.48438 20.1313 3.48438V2.48438C18.9154 2.48438 17.9375 3.57017 17.9375 4.77925H18.9375ZM20.1284 3C19.1919 3 18.3906 3.80975 18.3906 4.78205H19.3906C19.3906 4.3441 19.762 4 20.1284 4V3ZM21.8662 4.78205C21.8662 3.80975 21.0649 3 20.1284 3V4C20.4948 4 20.8662 4.3441 20.8662 4.78205H21.8662ZM20.1284 6.56411C21.0649 6.56411 21.8662 5.75436 21.8662 4.78205H20.8662C20.8662 5.22001 20.4948 5.56411 20.1284 5.56411V6.56411ZM18.3906 4.78205C18.3906 5.73691 19.11 6.56411 20.1284 6.56411V5.56411C19.7136 5.56411 19.3906 5.23746 19.3906 4.78205H18.3906Z" fill="black" mask="url(#path-8-outside-2_0_150)"/>
<mask id="path-10-outside-3_0_150" maskUnits="userSpaceOnUse" x="8.75781" y="0" width="7" height="7" fill="black">
<rect fill="white" x="8.75781" width="7" height="7"/>
<path fill-rule="evenodd" clip-rule="evenodd" d="M9.75781 3.3718C9.75781 4.65386 10.8002 5.7436 12.1031 5.7436C13.3409 5.7436 14.3832 4.65386 14.4484 3.3718C14.4484 2.08975 13.406 1 12.1031 1C10.8002 1 9.75781 2.02564 9.75781 3.3718ZM10.2812 3.30589C10.2812 2.21615 11.1282 1.38281 12.1054 1.38281C13.0826 1.38281 13.9295 2.21615 13.9295 3.30589C13.9295 4.39564 13.0826 5.22898 12.1054 5.22898C11.1282 5.22898 10.2812 4.39564 10.2812 3.30589Z"/>
</mask>
<path fill-rule="evenodd" clip-rule="evenodd" d="M9.75781 3.3718C9.75781 4.65386 10.8002 5.7436 12.1031 5.7436C13.3409 5.7436 14.3832 4.65386 14.4484 3.3718C14.4484 2.08975 13.406 1 12.1031 1C10.8002 1 9.75781 2.02564 9.75781 3.3718ZM10.2812 3.30589C10.2812 2.21615 11.1282 1.38281 12.1054 1.38281C13.0826 1.38281 13.9295 2.21615 13.9295 3.30589C13.9295 4.39564 13.0826 5.22898 12.1054 5.22898C11.1282 5.22898 10.2812 4.39564 10.2812 3.30589Z" fill="black"/>
<path d="M14.4484 3.3718L14.9477 3.39718L14.9484 3.3845V3.3718H14.4484ZM12.1031 5.2436C11.0864 5.2436 10.2578 4.38794 10.2578 3.3718H9.25781C9.25781 4.91977 10.5139 6.2436 12.1031 6.2436V5.2436ZM13.949 3.34643C13.8957 4.3964 13.042 5.2436 12.1031 5.2436V6.2436C13.6398 6.2436 14.8708 4.91131 14.9477 3.39718L13.949 3.34643ZM12.1031 1.5C13.1198 1.5 13.9484 2.35566 13.9484 3.3718H14.9484C14.9484 1.82383 13.6923 0.5 12.1031 0.5V1.5ZM10.2578 3.3718C10.2578 2.30042 11.0777 1.5 12.1031 1.5V0.5C10.5227 0.5 9.25781 1.75087 9.25781 3.3718H10.2578ZM12.1054 0.882812C10.8373 0.882812 9.78125 1.95496 9.78125 3.30589H10.7812C10.7812 2.47734 11.419 1.88281 12.1054 1.88281V0.882812ZM14.4295 3.30589C14.4295 1.95496 13.3734 0.882812 12.1054 0.882812V1.88281C12.7917 1.88281 13.4295 2.47734 13.4295 3.30589H14.4295ZM12.1054 5.72898C13.3734 5.72898 14.4295 4.65683 14.4295 3.30589H13.4295C13.4295 4.13445 12.7917 4.72898 12.1054 4.72898V5.72898ZM9.78125 3.30589C9.78125 4.65683 10.8373 5.72898 12.1054 5.72898V4.72898C11.419 4.72898 10.7812 4.13445 10.7812 3.30589H9.78125Z" fill="black" mask="url(#path-10-outside-3_0_150)"/>
</svg>
