<svg width="14" height="18" viewBox="0 0 14 18" fill="none" xmlns="http://www.w3.org/2000/svg">
<path d="M3.66668 8.79166H10.3333V7.54166H3.66668V8.79166ZM3.66668 5.45832H10.3333V4.20832H3.66668V5.45832ZM13.625 16.4167L10.0833 11.7917C9.86112 11.5139 9.59029 11.2917 9.27084 11.125C8.9514 10.9583 8.61112 10.875 8.25001 10.875H0.333344V1.91666C0.333344 1.58332 0.458343 1.29166 0.708343 1.04166C0.958343 0.791656 1.25001 0.666656 1.58334 0.666656H12.4167C12.75 0.666656 13.0417 0.791656 13.2917 1.04166C13.5417 1.29166 13.6667 1.58332 13.6667 1.91666V16.0833C13.6667 16.1389 13.6632 16.1944 13.6563 16.25C13.6493 16.3055 13.6389 16.3611 13.625 16.4167ZM1.58334 17.3333C1.25001 17.3333 0.958343 17.2083 0.708343 16.9583C0.458343 16.7083 0.333344 16.4167 0.333344 16.0833V12.125H8.25001C8.41668 12.125 8.57293 12.1632 8.71876 12.2396C8.86459 12.316 8.99306 12.4236 9.10418 12.5625L12.7292 17.2917C12.6736 17.3055 12.6215 17.316 12.5729 17.3229C12.5243 17.3298 12.4722 17.3333 12.4167 17.3333H1.58334Z" fill="#042CB0"/>
</svg>
