<svg width="18" height="17" viewBox="0 0 18 17" fill="none" xmlns="http://www.w3.org/2000/svg">
<path d="M2.23941 16.5C1.90608 16.5 1.61441 16.375 1.36441 16.125C1.11441 15.875 0.98941 15.5833 0.98941 15.25V5.24999C0.98941 4.91666 1.11441 4.62499 1.36441 4.37499C1.61441 4.12499 1.90608 3.99999 2.23941 3.99999H5.98941V1.91666C5.98941 1.58332 6.11441 1.29166 6.36441 1.04166C6.61441 0.791656 6.90608 0.666656 7.23941 0.666656H11.4061C11.7394 0.666656 12.0311 0.791656 12.2811 1.04166C12.5311 1.29166 12.6561 1.58332 12.6561 1.91666V3.99999H16.4061C16.7394 3.99999 17.0311 4.12499 17.2811 4.37499C17.5311 4.62499 17.6561 4.91666 17.6561 5.24999V15.25C17.6561 15.5833 17.5311 15.875 17.2811 16.125C17.0311 16.375 16.7394 16.5 16.4061 16.5H2.23941ZM7.23941 3.99999H11.4061V1.91666H7.23941V3.99999Z" fill="#666666"/>
</svg>
