<svg width="17" height="12" viewBox="0 0 17 12" fill="none" xmlns="http://www.w3.org/2000/svg">
<path d="M11.1902 0.75H9.04274C8.84274 0.75 8.65024 0.832031 8.50274 0.979688L6.04524 3.44062C6.04274 3.44336 6.04024 3.44883 6.03774 3.45156C5.62274 3.87813 5.63024 4.55898 5.98524 4.98281C6.30274 5.36289 6.97024 5.46406 7.38774 5.05664C7.39024 5.05391 7.39524 5.05391 7.39774 5.05117L9.39524 3.04961C9.55774 2.88828 9.81274 2.89922 9.96024 3.07695C10.1102 3.25469 10.0977 3.53086 9.93524 3.69492L9.28274 4.34844L12.9227 7.58047C12.9952 7.64609 13.0602 7.71719 13.1202 7.79102V2.5L11.7552 1.00703C11.6077 0.842969 11.4027 0.75 11.1902 0.75ZM13.9227 2.50547V8.62774C13.9227 9.11172 14.2802 9.50274 14.7227 9.50274H16.3227V2.50547H13.9227ZM15.1227 8.62774C14.9027 8.62774 14.7227 8.43086 14.7227 8.19024C14.7227 7.94961 14.9027 7.75274 15.1227 7.75274C15.3427 7.75274 15.5227 7.94961 15.5227 8.19024C15.5227 8.43086 15.3427 8.62774 15.1227 8.62774ZM0.322739 9.5H1.92274C2.36524 9.5 2.72274 9.10898 2.72274 8.625V2.50547H0.322739V9.5ZM1.52274 7.75274C1.74274 7.75274 1.92274 7.94961 1.92274 8.19024C1.92274 8.43086 1.74274 8.62774 1.52274 8.62774C1.30274 8.62774 1.12274 8.43086 1.12274 8.19024C1.12274 7.94688 1.30274 7.75274 1.52274 7.75274ZM12.4202 8.26133L8.68774 4.94727L7.93774 5.69922C7.19524 6.44023 6.05774 6.36914 5.39524 5.57891C4.72274 4.775 4.77524 3.53086 5.50524 2.79805L7.55024 0.75H5.45524C5.24274 0.75 5.04024 0.842969 4.89024 1.00703L3.52274 2.5V8.62227H3.98024L6.24274 10.8617C6.92774 11.4715 7.93524 11.3566 8.49274 10.6074L8.49774 10.602L8.94524 11.0258C9.34274 11.3813 9.93024 11.3129 10.2527 10.8781L11.0377 9.82266L11.1727 9.94297C11.5152 10.2465 12.0202 10.1918 12.2977 9.81445L12.5352 9.49453C12.8152 9.11719 12.7627 8.56758 12.4202 8.26133Z" fill="#666666"/>
</svg>
