<svg width="44" height="44" viewBox="0 0 44 44" fill="none" xmlns="http://www.w3.org/2000/svg">
<circle cx="22" cy="22" r="22" fill="#E6EAF7"/>
<path d="M18.6667 21.7917H25.3333V20.5417H18.6667V21.7917ZM18.6667 18.4583H25.3333V17.2083H18.6667V18.4583ZM28.625 29.4167L25.0833 24.7917C24.8611 24.5139 24.5903 24.2917 24.2708 24.125C23.9514 23.9583 23.6111 23.875 23.25 23.875H15.3333V14.9167C15.3333 14.5833 15.4583 14.2917 15.7083 14.0417C15.9583 13.7917 16.25 13.6667 16.5833 13.6667H27.4167C27.75 13.6667 28.0417 13.7917 28.2917 14.0417C28.5417 14.2917 28.6667 14.5833 28.6667 14.9167V29.0833C28.6667 29.1389 28.6632 29.1944 28.6563 29.25C28.6493 29.3055 28.6389 29.3611 28.625 29.4167ZM16.5833 30.3333C16.25 30.3333 15.9583 30.2083 15.7083 29.9583C15.4583 29.7083 15.3333 29.4167 15.3333 29.0833V25.125H23.25C23.4167 25.125 23.5729 25.1632 23.7188 25.2396C23.8646 25.316 23.9931 25.4236 24.1042 25.5625L27.7292 30.2917C27.6736 30.3055 27.6215 30.316 27.5729 30.3229C27.5243 30.3298 27.4722 30.3333 27.4167 30.3333H16.5833Z" fill="#042CB0"/>
</svg>
