<svg width="44" height="44" viewBox="0 0 44 44" fill="none" xmlns="http://www.w3.org/2000/svg">
<circle cx="22" cy="22" r="22" fill="#E6EAF7"/>
<g clip-path="url(#clip0_0_255)">
<path d="M22 15.75C17.8333 15.75 14.275 18.3417 12.8333 22C14.275 25.6583 17.8333 28.25 22 28.25C26.1667 28.25 29.725 25.6583 31.1667 22C29.725 18.3417 26.1667 15.75 22 15.75ZM22 26.1667C19.7 26.1667 17.8333 24.3 17.8333 22C17.8333 19.7 19.7 17.8333 22 17.8333C24.3 17.8333 26.1667 19.7 26.1667 22C26.1667 24.3 24.3 26.1667 22 26.1667ZM22 19.5C20.6167 19.5 19.5 20.6167 19.5 22C19.5 23.3833 20.6167 24.5 22 24.5C23.3833 24.5 24.5 23.3833 24.5 22C24.5 20.6167 23.3833 19.5 22 19.5Z" fill="#042CB0"/>
</g>
<defs>
<clipPath id="clip0_0_255">
<rect width="20" height="20" fill="white" transform="translate(12 12)"/>
</clipPath>
</defs>
</svg>
